# xmcd
#
# Track frame offsets:
#	150
#	14993
#	33471
#	48549
#	63070
#	77330
#	92228
#	106020
#	120551
#	136650
#	150280
#	164648
#	177401
#	188920
#	206188
#
# Disc length: 3000 seconds
#
# Revision: 1
# Processed by: cddbd v1.5.2PL0 Copyright (c) Steve Scherf et al.
# Submitted via: audiograbber 1.83.01
#
DISCID=c30bb60f
DTITLE=James Lann - Ford
DYEAR=2007
DGENRE=Country
TTITLE0=It's Not Your Time
TTITLE1=Daddy's Little Girl
TTITLE2=Beautiful In His Eyes
TTITLE3=F-O-R-D
TTITLE4=Deep In The Heart Of This Texan
TTITLE5=Honky Tonk Two Step Queen
TTITLE6=I'm From The Country Too
TTITLE7=The Picture
TTITLE8=Moving On
TTITLE9=Cowgirl With An Attitude
TTITLE10=Emmy's Eyes
TTITLE11=Tall Dark and Handsome
TTITLE12=40 Miles Down 25
TTITLE13=Big Wheels In The Moonlight
TTITLE14=Texas In My Rearview
EXTD=
EXTT0=
EXTT1=
EXTT2=
EXTT3=
EXTT4=
EXTT5=
EXTT6=
EXTT7=
EXTT8=
EXTT9=
EXTT10=
EXTT11=
EXTT12=
EXTT13=
EXTT14=
PLAYORDER=
